# xmcd
# Track frame offsets:
# 182
# 19999
# 40761
# 68837
# 88658
# 105088
# 125886
# 149318
# 164974
# 180619
#
# Disc length: 2627 seconds
# Revision: 0
# Processed by: cddbd v1.5.2PL0 Copyright (c) Steve Scherf et al.
# Submitted via: VisiTrax 2.11.1.266 - For more info visit www.synapsa.com
#
DISCID=8b0a410a
DTITLE=Terry. Glen - Soul Searchin"
DYEAR=2008
DGENRE=Blues
TTITLE0=Soul Searchin"
TTITLE1=All I Need is You
TTITLE2=If I Die
TTITLE3=Talk to Me Darlin"
TTITLE4=Sugar Blues Express
TTITLE5=Real Goine Cat
TTITLE6=Maurice
TTITLE7=Cyclonic Woman
TTITLE8=When the Saints
TTITLE9=Loved By My Woman
EXTD=
EXTT0=
EXTT1=
EXTT2=
EXTT3=
EXTT4=
EXTT5=
EXTT6=
EXTT7=
EXTT8=
EXTT9=
PLAYORDER=
